<svg width="89" height="88" viewBox="0 0 89 88" fill="none" xmlns="http://www.w3.org/2000/svg">
<g filter="url(#filter0_f_0_460)">
<rect x="28.6719" y="28" width="32" height="32" rx="16" fill="#57D364"/>
</g>
<path d="M58.8914 52.3675C58.7206 51.4989 58.436 50.6303 58.0944 49.8196C56.8419 46.8085 54.5647 44.3185 51.7751 42.8708C52.5721 41.6548 53.0276 40.2071 53.0276 38.6437C53.0276 34.4165 49.6687 31 45.5128 31C41.3569 31 37.998 34.4165 37.998 38.6437C37.998 40.2071 38.4534 41.6548 39.2504 42.8708C35.55 44.7817 32.9312 48.2561 32.0772 52.3096C31.8495 53.4677 32.1341 54.6258 32.8173 55.5523C33.5574 56.4788 34.6391 57 35.7777 57H55.1909C56.3295 57 57.4112 56.4788 58.1513 55.5523C58.8914 54.6837 59.1761 53.5256 58.8914 52.3675ZM45.4558 33.4321C48.3024 33.4321 50.5796 35.8062 50.5796 38.6437C50.5796 41.4811 48.2454 43.8552 45.4558 43.8552C42.6093 43.8552 40.3321 41.4811 40.3321 38.6437C40.3321 35.8062 42.6663 33.4321 45.4558 33.4321ZM56.2726 54.1047C55.988 54.4521 55.5894 54.6258 55.1909 54.6258H35.7777C35.3222 54.6258 34.9237 54.4521 34.696 54.1047C34.4114 53.7572 34.2975 53.294 34.4114 52.8886C35.1514 49.3563 37.5425 46.3452 40.7875 44.7817C40.8445 44.7817 40.8445 44.7238 40.9014 44.7238C42.1539 45.7082 43.7479 46.3452 45.4558 46.3452C47.1637 46.3452 48.7578 45.7661 50.0672 44.7238C50.1241 44.7238 50.1241 44.7817 50.1811 44.7817C52.7429 45.9978 54.7924 48.0824 55.8741 50.7461C56.1587 51.441 56.3865 52.1359 56.5573 52.8886C56.6711 53.2361 56.5573 53.7572 56.2726 54.1047Z" fill="#D1E8D3"/>
<defs>
<filter id="filter0_f_0_460" x="0.671875" y="0" width="88" height="88" filterUnits="userSpaceOnUse" color-interpolation-filters="sRGB">
<feFlood flood-opacity="0" result="BackgroundImageFix"/>
<feBlend mode="normal" in="SourceGraphic" in2="BackgroundImageFix" result="shape"/>
<feGaussianBlur stdDeviation="14" result="effect1_foregroundBlur_0_460"/>
</filter>
</defs>
</svg>
